<?xml version="1.0" encoding="UTF-8"?>
<!DOCTYPE svg PUBLIC "-//W3C//DTD SVG 1.1//EN" "http://www.w3.org/Graphics/SVG/1.1/DTD/svg11.dtd">
<!-- Creator: CorelDRAW 2021 (64-Bit) -->
<svg xmlns="http://www.w3.org/2000/svg" xml:space="preserve" width="12.9032" height="2.09048" version="1.1" style="shape-rendering:geometricPrecision; text-rendering:geometricPrecision; image-rendering:optimizeQuality; fill-rule:evenodd; clip-rule:evenodd"
viewBox="0 0 1625.84 263.41"
 xmlns:xlink="http://www.w3.org/1999/xlink"
 xmlns:xodm="http://www.corel.com/coreldraw/odm/2003">
 <g id="Layer_x0020_1">
  <metadata id="CorelCorpID_0Corel-Layer"/>
  <path class="fil0" style="fill:#EF4344;fill-rule:nonzero" d="M123.32 53.17c-12.44,-7.96 -27.83,-12.56 -44.4,-12.56 -45.83,0 -78.92,32.81 -78.92,78.07 0,41.51 28.08,72.54 67.86,77.4l0.13 -0.31c3,-6.96 6.7,-14.9 10.14,-22.07 2.29,-4.76 4.52,-9.27 6.4,-12.98 -1.73,0.26 -3.51,0.39 -5.32,0.39 -20.93,0 -36.77,-17.82 -36.77,-42.43 0,-24.61 16.12,-42.43 36.77,-42.43 7.64,0 14.89,2.54 20.8,6.86l23.31 -29.95z"/>
  <path class="fil0" style="fill:#EF4344;fill-rule:nonzero" d="M201.28 171.03c-23.76,0 -41.86,-16.97 -45.54,-42.43l121.07 0c0.28,-3.11 0.57,-7.36 0.57,-10.75 0,-44.41 -31.68,-76.09 -76.38,-76.09 -44.69,0 -76.94,31.68 -76.94,75.81 0,46.11 32.53,79.21 77.79,79.21 31.12,0 59.69,-16.97 68.17,-40.45l-26.59 -8.77c-6.51,13.29 -23.76,23.48 -42.15,23.48zm-45.54 -65.06c4.24,-22.91 21.22,-38.47 44.41,-38.47 23.76,0 41.87,15.84 45.26,38.47l-89.67 0z"/>
  <path class="fil0" style="fill:#EF4344;fill-rule:nonzero" d="M423.41 135.1l0 -87.69 -30.83 0 0 85.43c0,49.31 -73.27,49.21 -73.27,0l0 -85.43 -30.83 0 0 87.69c0,82.55 134.94,82.56 134.94,0z"/>
  <path class="fil0" style="fill:#EF4344;fill-rule:nonzero" d="M584.71 96.35c-5.09,-31.68 -35.08,-54.6 -71.57,-54.6 -43.85,0 -75.81,32.53 -75.81,77.51 0,44.98 31.96,77.51 76.09,77.51 35.36,0 65.63,-22.91 71.57,-54.31l-29.42 -3.68c-5.09,18.39 -21.78,31.97 -42.15,31.97 -25.74,0 -45.54,-21.78 -45.54,-51.48 0,-29.7 20.08,-51.48 45.54,-51.48 19.8,0 37.34,13.58 42.15,32.25l29.14 -3.68z"/>
  <path class="fil1" style="fill:#ED4A4B;fill-rule:nonzero" d="M622.47 168.91c11.69,11.2 27.97,17.8 46.89,17.8 13.3,0 26.25,-4.17 36.87,-11.25l0.01 0c10.51,-7.01 18.73,-16.86 22.71,-28.33 0.21,-0.77 0.97,-1.26 1.77,-1.13l8.44 1.41c0.09,0.01 0.19,0.03 0.28,0.06 0.83,0.27 1.28,1.16 1.01,1.98 -4.63,14.18 -14.45,26.4 -27.08,35.07 -12.64,8.68 -28.11,13.82 -44.01,13.82 -22.64,0 -42.12,-8.16 -55.96,-22 -13.83,-13.83 -22,-33.32 -22,-55.96 0,-22.64 8.16,-42.13 22,-55.96 13.83,-13.83 33.32,-22 55.96,-22 21.91,0 40.67,8.15 53.98,21.97 13.32,13.84 21.15,33.33 21.15,55.99l0 2.83c0,0.87 -0.71,1.58 -1.58,1.58l-139.8 0c0.91,17.87 7.97,33.19 19.37,44.11zm987.12 16.91c-10.11,7.88 -24.26,12.55 -40.49,12.55 -17.48,0 -32.54,-5.36 -43.25,-14.43 -10.8,-9.14 -17.18,-22.02 -17.18,-36.94 0,-0.87 0.71,-1.58 1.58,-1.58l8.49 0c0.87,0 1.58,0.71 1.58,1.58 0,11.64 4.99,21.52 13.45,28.5 8.6,7.1 20.81,11.23 35.05,11.23 13.18,0 24.55,-3.53 32.62,-9.37 8.01,-5.79 12.77,-13.87 12.77,-23.01 0,-19.73 -22.85,-24.76 -46.52,-29.97 -26.74,-5.88 -54.48,-11.99 -54.48,-39.35 0,-12.24 5.74,-22.92 15.3,-30.54 9.47,-7.54 22.69,-12.06 37.77,-12.06 16.13,0 30.17,5.05 40.18,13.61 10.02,8.57 15.99,20.63 15.99,34.65 0,0.87 -0.71,1.58 -1.58,1.58l-8.49 0c-0.87,0 -1.58,-0.71 -1.58,-1.58 0,-10.7 -4.63,-19.75 -12.32,-26.16 -7.94,-6.62 -19.15,-10.46 -31.93,-10.46 -11.95,0 -22.44,3.34 -29.92,8.86 -7.36,5.43 -11.8,12.99 -11.8,21.53 0,18.56 22.04,23.41 45.25,28.52 27.11,5.97 55.75,12.27 55.75,40.8 0,12.93 -6.08,24.1 -16.25,32.03zm-229.21 -16.9c11.69,11.2 27.98,17.8 46.89,17.8 13.3,0 26.25,-4.17 36.87,-11.25 10.52,-7.01 18.74,-16.86 22.72,-28.34 0.21,-0.77 0.97,-1.26 1.77,-1.13l8.44 1.41c0.09,0.01 0.18,0.03 0.28,0.06 0.83,0.27 1.28,1.16 1.01,1.98 -4.63,14.18 -14.45,26.4 -27.08,35.08 -12.64,8.68 -28.11,13.82 -44.02,13.82 -22.64,0 -42.13,-8.16 -55.96,-22 -13.83,-13.83 -22,-33.32 -22,-55.96 0,-22.64 8.16,-42.13 22,-55.96 13.83,-13.83 33.32,-22 55.96,-22 21.92,0 40.68,8.15 53.99,21.97 13.33,13.84 21.15,33.34 21.15,55.99l0 2.83c0,0.87 -0.71,1.58 -1.58,1.58l-139.82 0c0.91,17.87 7.97,33.19 19.37,44.12zm0.93 -97.91c-11.34,10.39 -18.65,25 -20.23,42.15l129.28 0c-1.56,-17.18 -8.55,-31.81 -19.38,-42.21 -11.09,-10.65 -26.22,-16.88 -43.71,-16.88 -18.37,0 -34.3,6.25 -45.96,16.94zm-61.06 -22.91l8.49 0c0.87,0 1.58,0.71 1.58,1.58l0 141.46c0,0.87 -0.71,1.58 -1.58,1.58l-8.49 0c-0.87,0 -1.58,-0.71 -1.58,-1.58l0 -141.46c0,-0.87 0.71,-1.58 1.58,-1.58zm-2.96 -30.81c-1.82,-1.82 -2.86,-4.36 -2.86,-7.23 0,-2.87 1.04,-5.41 2.86,-7.23 1.77,-1.77 4.25,-2.84 7.2,-2.84 2.78,0 5.26,1.06 7.06,2.81l0.1 0.09c1.81,1.81 2.9,4.32 2.9,7.16 0,2.84 -1.09,5.35 -2.9,7.16 -1.81,1.81 -4.32,2.9 -7.16,2.9 -2.95,0 -5.43,-1.07 -7.2,-2.84zm-430.45 91.79l0 82.04c0,0.87 -0.71,1.58 -1.58,1.58l-8.49 0c-0.87,0 -1.58,-0.71 -1.58,-1.58l0 -82.04c0,-26.49 -13.14,-43.42 -29.97,-50.8 -6.55,-2.88 -13.67,-4.31 -20.78,-4.31 -7.11,0 -14.22,1.44 -20.78,4.32 -16.84,7.39 -29.99,24.32 -29.99,50.8l0 82.04c0,0.87 -0.71,1.58 -1.58,1.58l-8.49 0c-0.87,0 -1.58,-0.71 -1.58,-1.58l0 -82.04c0,-32.22 16.18,-52.87 36.89,-61.93 8.05,-3.52 16.78,-5.28 25.5,-5.28 8.72,0 17.45,1.76 25.5,5.28 20.71,9.05 36.89,29.7 36.89,61.93zm278.73 138.47c-13.35,-10.05 -22.3,-24.22 -24.48,-40.67 -0.11,-0.86 0.49,-1.65 1.35,-1.76l8.5 -1.14c0.86,-0.11 1.65,0.51 1.75,1.37 1.64,13.42 9.06,25.01 20.21,33.24 11.22,8.28 26.24,13.18 43,13.18 0,0.02 0.49,0.01 0.57,0 17.29,0 32.24,-6.31 42.9,-16.97 10.67,-10.67 17.05,-25.69 17.19,-43.12l-0 -29.83c-5.79,10.41 -13.82,18.99 -23.56,25.21 -11.32,7.24 -24.93,11.28 -39.93,11.28 -21.81,0 -40.59,-8.18 -53.94,-22.03 -13.32,-13.83 -21.19,-33.3 -21.19,-55.92 0,-22.62 7.87,-42.09 21.19,-55.92 13.34,-13.86 32.13,-22.03 53.94,-22.03 23.42,0 41.71,8.69 54.4,22.96 13.62,15.32 20.73,37.06 20.73,61.35l0 64.37c0,20.94 -7.6,39.01 -20.44,51.86 -12.84,12.84 -30.91,20.44 -51.86,20.44 -19.55,0 -37.11,-5.9 -50.34,-15.86zm2.07 -79.7c11.35,11.84 27.28,18.87 45.44,18.87 18.48,0 34.33,-6.94 45.56,-18.66 11.28,-11.77 17.93,-28.38 17.93,-47.65 0,-19.2 -6.73,-35.76 -18.01,-47.52 -11.31,-11.8 -27.21,-18.8 -45.48,-18.8 -18.69,0 -34.49,6.89 -45.65,18.53 -11.29,11.78 -17.84,28.44 -17.84,47.79 0,19.16 6.78,35.69 18.05,47.45zm-70.85 -117.13c6.97,-5.35 15.6,-8.27 25.69,-8.27 3.91,0 7.82,0.43 11.63,1.26 3.78,0.82 7.48,2.05 10.96,3.64 0.61,0.22 1.05,0.8 1.05,1.49l0 9.62c-0,0.26 -0.07,0.53 -0.2,0.77 -0.42,0.76 -1.38,1.03 -2.14,0.6 -3.44,-1.92 -6.85,-3.36 -10.32,-4.31 -3.46,-0.95 -7,-1.42 -10.69,-1.42 -11.72,0 -21.37,5.38 -28.1,14.79 -6.89,9.64 -10.78,23.51 -10.78,40.21l0 82.04c0,0.87 -0.71,1.58 -1.58,1.58l-8.49 0c-0.87,0 -1.58,-0.71 -1.58,-1.58l0 -141.44c0,-0.87 0.71,-1.58 1.58,-1.58l8.49 0c0.87,0 1.58,0.71 1.58,1.58l0 17.22c3.27,-6.64 7.6,-12.11 12.9,-16.18zm-164.13 118.2c11.69,11.2 27.97,17.8 46.89,17.8 13.3,0 26.25,-4.17 36.87,-11.25l0.01 0c10.51,-7.01 18.73,-16.86 22.71,-28.33 0.21,-0.77 0.97,-1.26 1.77,-1.13l8.44 1.41c0.09,0.01 0.19,0.03 0.28,0.06 0.83,0.27 1.28,1.16 1.01,1.98 -4.63,14.18 -14.45,26.4 -27.08,35.07 -12.64,8.68 -28.11,13.82 -44.01,13.82 -22.64,0 -42.12,-8.16 -55.96,-22 -13.83,-13.83 -22,-33.32 -22,-55.96 0,-22.64 8.16,-42.13 22,-55.96 13.83,-13.83 33.32,-22 55.96,-22 21.91,0 40.67,8.15 53.98,21.97 13.32,13.84 21.15,33.33 21.15,55.99l0 2.83c0,0.87 -0.71,1.58 -1.58,1.58l-139.8 0c0.91,17.87 7.97,33.19 19.37,44.11zm0.93 -97.9c-11.34,10.39 -18.65,25 -20.23,42.15l129.26 0c-1.56,-17.18 -8.55,-31.81 -19.37,-42.21 -11.08,-10.65 -26.22,-16.88 -43.7,-16.88 -18.36,0 -34.3,6.25 -45.95,16.94zm-310.2 0c-11.34,10.39 -18.65,25 -20.23,42.15l129.26 0c-1.56,-17.18 -8.55,-31.81 -19.37,-42.21 -11.08,-10.65 -26.22,-16.88 -43.7,-16.88 -18.36,0 -34.3,6.25 -45.96,16.94z"/>
  <path class="fil2" style="fill:#322F2F;fill-rule:nonzero" d="M103.45 229.15c0.89,-0.01 1.82,-0.1 2.78,-0.26 3.96,-0.67 7.56,-2.65 10.15,-5.48 2.5,-2.73 4.05,-6.25 4.03,-10.09 -0,-0.72 -0.08,-1.51 -0.22,-2.36l-0.01 -0.09c-0.11,-0.67 -0.52,-1.97 -1.16,-3.7 -0.79,-2.15 -1.91,-4.89 -3.23,-7.95 -2.59,-6 -5.66,-12.6 -8.47,-18.46 -1.35,-2.8 -2.67,-5.49 -3.87,-7.91 -1.2,2.42 -2.52,5.11 -3.87,7.91 -2.81,5.86 -5.88,12.46 -8.47,18.46 -1.32,3.06 -2.45,5.8 -3.23,7.95 -0.64,1.74 -1.05,3.03 -1.15,3.71l-0.06 0.32c-0.12,0.76 -0.18,1.47 -0.18,2.13 -0.02,3.85 1.52,7.37 4.03,10.1 2.6,2.83 6.2,4.81 10.16,5.48 0.96,0.16 1.89,0.25 2.78,0.26zm4.57 10.5c-1.44,0.24 -2.97,0.38 -4.55,0.38l-0.04 0c-1.59,-0.01 -3.11,-0.14 -4.55,-0.38 -6.38,-1.07 -12.19,-4.28 -16.39,-8.85 -4.29,-4.67 -6.93,-10.77 -6.89,-17.52 0.01,-1.3 0.11,-2.58 0.3,-3.83l0.03 -0.19c0.22,-1.42 0.82,-3.43 1.71,-5.84 0.9,-2.45 2.09,-5.36 3.44,-8.5 2.39,-5.53 5.59,-12.4 8.69,-18.84 3.88,-8.07 7.42,-15.07 8.92,-17.75 0.48,-0.85 1.18,-1.58 2.09,-2.1 2.63,-1.47 5.95,-0.54 7.43,2.09 1.5,2.67 5.04,9.68 8.93,17.75 3.1,6.44 6.3,13.3 8.69,18.84 1.36,3.14 2.54,6.05 3.44,8.5 0.89,2.41 1.49,4.42 1.7,5.84 0.21,1.31 0.32,2.66 0.33,4.02 0.04,6.75 -2.6,12.85 -6.89,17.52 -4.2,4.57 -10,7.78 -16.38,8.85z"/>
 </g>
</svg>
