<?xml version="1.0" encoding="UTF-8"?>
<!DOCTYPE svg PUBLIC "-//W3C//DTD SVG 1.1//EN" "http://www.w3.org/Graphics/SVG/1.1/DTD/svg11.dtd">
<!-- Creator: CorelDRAW 2021 (64-Bit) -->
<svg xmlns="http://www.w3.org/2000/svg" xml:space="preserve" width="5.32123in" height="3.0111in" version="1.1" style="shape-rendering:geometricPrecision; text-rendering:geometricPrecision; image-rendering:optimizeQuality; fill-rule:evenodd; clip-rule:evenodd"
viewBox="0 0 396.43 224.33"
 xmlns:xlink="http://www.w3.org/1999/xlink"
 xmlns:xodm="http://www.corel.com/coreldraw/odm/2003">
 <defs>
  <style type="text/css">
   <![CDATA[
    .fil1 {fill:#322F2F;fill-rule:nonzero}
    .fil2 {fill:#ED4A4B;fill-rule:nonzero}
    .fil0 {fill:#EF4344;fill-rule:nonzero}
   ]]>
  </style>
 </defs>
 <g id="Layer_x0020_1">
  <metadata id="CorelCorpID_0Corel-Layer"/>
  <g id="_3062154349856">
   <g>
    <path class="fil0" d="M82.99 8.45c-8.37,-5.36 -18.73,-8.45 -29.88,-8.45 -30.84,0 -53.11,22.08 -53.11,52.54 0,27.93 18.89,48.82 45.67,52.09l0.09 -0.21c2.02,-4.68 4.51,-10.03 6.82,-14.85 1.54,-3.21 3.04,-6.24 4.3,-8.74 -1.17,0.17 -2.36,0.26 -3.58,0.26 -14.09,0 -24.75,-11.99 -24.75,-28.56 0,-16.56 10.85,-28.56 24.75,-28.56 5.14,0 10.02,1.71 14,4.62l15.69 -20.16z"/>
    <path class="fil0" d="M135.46 87.76c-15.99,0 -28.17,-11.42 -30.65,-28.56l81.48 0c0.19,-2.09 0.38,-4.95 0.38,-7.24 0,-29.89 -21.32,-51.21 -51.4,-51.21 -30.08,0 -51.78,21.32 -51.78,51.02 0,31.03 21.89,53.3 52.35,53.3 20.94,0 40.17,-11.42 45.88,-27.22l-17.9 -5.9c-4.38,8.95 -15.99,15.8 -28.37,15.8zm-30.65 -43.79c2.86,-15.42 14.28,-25.89 29.89,-25.89 15.99,0 28.18,10.66 30.46,25.89l-60.35 0z"/>
    <path class="fil0" d="M284.95 63.58l0 -59.02 -20.75 0 0 57.49c0,33.18 -49.31,33.12 -49.31,0l0 -57.49 -20.75 0 0 59.02c0,55.56 90.81,55.56 90.81,0z"/>
    <path class="fil0" d="M393.5 37.5c-3.43,-21.32 -23.61,-36.74 -48.16,-36.74 -29.51,0 -51.02,21.89 -51.02,52.16 0,30.27 21.51,52.16 51.21,52.16 23.8,0 44.17,-15.42 48.16,-36.55l-19.8 -2.48c-3.43,12.37 -14.66,21.51 -28.37,21.51 -17.32,0 -30.65,-14.66 -30.65,-34.65 0,-19.99 13.52,-34.65 30.65,-34.65 13.33,0 25.13,9.14 28.37,21.7l19.61 -2.47z"/>
    <path class="fil1" d="M69.62 126.88c0.6,-0 1.23,-0.06 1.87,-0.17 2.66,-0.45 5.08,-1.78 6.83,-3.69 1.69,-1.84 2.73,-4.2 2.71,-6.79 -0,-0.48 -0.05,-1.02 -0.15,-1.59l-0.01 -0.06c-0.08,-0.47 -0.35,-1.34 -0.77,-2.5 -0.53,-1.44 -1.29,-3.28 -2.18,-5.34 -1.74,-4.04 -3.81,-8.48 -5.7,-12.42 -0.91,-1.88 -1.79,-3.69 -2.6,-5.32 -0.81,1.63 -1.7,3.45 -2.61,5.34 -1.98,4.11 -4.06,8.59 -5.71,12.4l0.01 0c-0.89,2.06 -1.65,3.9 -2.17,5.35 -0.43,1.17 -0.71,2.04 -0.78,2.5l-0.04 0.21c-0.08,0.51 -0.12,0.99 -0.12,1.43 -0.02,2.59 1.02,4.96 2.71,6.79 1.75,1.9 4.17,3.24 6.83,3.69 0.65,0.11 1.28,0.17 1.87,0.17zm3.08 7.07c-0.97,0.16 -2,0.25 -3.07,0.26l-0.03 0c-1.07,-0.01 -2.1,-0.1 -3.06,-0.26 -4.29,-0.72 -8.2,-2.88 -11.03,-5.96 -2.88,-3.14 -4.67,-7.25 -4.64,-11.79 0,-0.87 0.07,-1.74 0.2,-2.58l0.02 -0.13c0.15,-0.95 0.55,-2.31 1.15,-3.93 0.6,-1.65 1.4,-3.6 2.32,-5.72l0.01 0c1.7,-3.94 3.83,-8.51 5.83,-12.67 2.62,-5.44 5,-10.15 6.01,-11.96 0.32,-0.57 0.8,-1.07 1.41,-1.41 1.77,-0.99 4.01,-0.36 5,1.41 1.01,1.8 3.39,6.51 6.01,11.95 2.08,4.33 4.24,8.95 5.85,12.68 0.91,2.11 1.71,4.07 2.32,5.72l0 0.01c0.6,1.63 1.01,2.98 1.15,3.92 0.14,0.88 0.21,1.79 0.22,2.71 0.03,4.54 -1.75,8.65 -4.64,11.79 -2.82,3.08 -6.73,5.23 -11.02,5.96z"/>
   </g>
   <path class="fil2" d="M11.9 188.11c4.48,4.29 10.72,6.82 17.97,6.82 5.1,0 10.06,-1.6 14.13,-4.31l0 0c4.03,-2.69 7.18,-6.46 8.7,-10.86 0.08,-0.29 0.37,-0.48 0.68,-0.43l3.23 0.54c0.04,0 0.07,0.01 0.11,0.02 0.32,0.1 0.49,0.44 0.39,0.76 -1.77,5.43 -5.54,10.12 -10.38,13.44 -4.84,3.33 -10.77,5.3 -16.87,5.3 -8.68,0 -16.14,-3.13 -21.44,-8.43 -5.3,-5.3 -8.43,-12.77 -8.43,-21.44 0,-8.68 3.13,-16.14 8.43,-21.44 5.3,-5.3 12.77,-8.43 21.44,-8.43 8.4,0 15.59,3.12 20.69,8.42 5.11,5.3 8.1,12.77 8.1,21.46l0 1.08c0,0.33 -0.27,0.6 -0.6,0.6l-53.58 0c0.35,6.85 3.05,12.72 7.42,16.91zm378.3 6.48c-3.87,3.02 -9.3,4.81 -15.52,4.81 -6.7,0 -12.47,-2.06 -16.57,-5.53 -4.14,-3.5 -6.58,-8.44 -6.58,-14.16 0,-0.33 0.27,-0.6 0.6,-0.6l3.25 0c0.33,0 0.6,0.27 0.6,0.6 0,4.46 1.91,8.25 5.15,10.92 3.3,2.72 7.97,4.3 13.43,4.3 5.05,0 9.41,-1.35 12.5,-3.59 3.07,-2.22 4.89,-5.32 4.89,-8.82 0,-7.56 -8.76,-9.49 -17.83,-11.49 -10.25,-2.25 -20.88,-4.59 -20.88,-15.08 0,-4.69 2.2,-8.78 5.86,-11.7 3.63,-2.89 8.69,-4.62 14.47,-4.62 6.18,0 11.56,1.94 15.4,5.22 3.84,3.28 6.13,7.9 6.13,13.28 0,0.33 -0.27,0.6 -0.6,0.6l-3.25 0c-0.33,0 -0.6,-0.27 -0.6,-0.6 0,-4.1 -1.78,-7.57 -4.72,-10.03 -3.04,-2.54 -7.34,-4.01 -12.24,-4.01 -4.58,0 -8.6,1.28 -11.46,3.4 -2.82,2.08 -4.52,4.98 -4.52,8.25 0,7.11 8.45,8.97 17.34,10.93 10.39,2.29 21.37,4.7 21.37,15.63 0,4.96 -2.33,9.23 -6.23,12.27zm-87.84 -6.48c4.48,4.29 10.72,6.82 17.97,6.82 5.1,0 10.06,-1.6 14.13,-4.31 4.03,-2.69 7.18,-6.46 8.71,-10.86 0.08,-0.29 0.37,-0.48 0.68,-0.43l3.23 0.54c0.04,0 0.07,0.01 0.11,0.02 0.32,0.1 0.49,0.44 0.39,0.76 -1.77,5.43 -5.54,10.12 -10.38,13.44 -4.84,3.33 -10.77,5.3 -16.87,5.3 -8.68,0 -16.15,-3.13 -21.45,-8.43 -5.3,-5.3 -8.43,-12.77 -8.43,-21.45 0,-8.68 3.13,-16.15 8.43,-21.45 5.3,-5.3 12.77,-8.43 21.45,-8.43 8.4,0 15.59,3.12 20.69,8.42 5.11,5.3 8.1,12.78 8.1,21.46l0 1.08c0,0.33 -0.27,0.6 -0.6,0.6l-53.59 0c0.35,6.85 3.05,12.72 7.42,16.91zm0.36 -37.52c-4.35,3.98 -7.15,9.58 -7.75,16.16l49.54 0c-0.6,-6.58 -3.28,-12.19 -7.43,-16.18 -4.25,-4.08 -10.05,-6.47 -16.75,-6.47 -7.04,0 -13.15,2.4 -17.61,6.49zm-23.4 -8.78l3.25 0c0.33,0 0.6,0.27 0.6,0.6l0 54.21c0,0.33 -0.27,0.6 -0.6,0.6l-3.25 0c-0.33,0 -0.6,-0.27 -0.6,-0.6l0 -54.21c0,-0.33 0.27,-0.6 0.6,-0.6zm-1.13 -11.81c-0.7,-0.7 -1.1,-1.67 -1.1,-2.77 0,-1.1 0.4,-2.07 1.1,-2.77 0.68,-0.68 1.63,-1.09 2.76,-1.09 1.07,0 2.02,0.41 2.71,1.08l0.04 0.03c0.69,0.69 1.11,1.66 1.11,2.74 0,1.09 -0.42,2.05 -1.11,2.74 -0.69,0.69 -1.66,1.11 -2.74,1.11 -1.13,0 -2.08,-0.41 -2.76,-1.09zm-164.96 35.18l0 31.44c0,0.33 -0.27,0.6 -0.6,0.6l-3.25 0c-0.33,0 -0.6,-0.27 -0.6,-0.6l0 -31.44c0,-10.15 -5.04,-16.64 -11.49,-19.47 -2.51,-1.1 -5.24,-1.65 -7.96,-1.65 -2.72,0 -5.45,0.55 -7.96,1.65 -6.45,2.83 -11.49,9.32 -11.49,19.47l0 31.44c0,0.33 -0.27,0.6 -0.6,0.6l-3.25 0c-0.33,0 -0.6,-0.27 -0.6,-0.6l0 -31.44c0,-12.35 6.2,-20.26 14.14,-23.73 3.09,-1.35 6.43,-2.02 9.77,-2.02 3.34,0 6.69,0.67 9.77,2.02 7.94,3.47 14.14,11.38 14.14,23.73zm106.82 53.07c-5.11,-3.85 -8.54,-9.28 -9.38,-15.59 -0.04,-0.33 0.19,-0.63 0.52,-0.67l3.26 -0.44c0.33,-0.04 0.63,0.2 0.67,0.53 0.63,5.14 3.47,9.58 7.75,12.74 4.3,3.17 10.05,5.05 16.48,5.05 0,0.01 0.19,0 0.22,0 6.62,0 12.36,-2.42 16.44,-6.5 4.09,-4.09 6.54,-9.85 6.59,-16.52l-0 -11.43c-2.22,3.99 -5.3,7.28 -9.03,9.66 -4.34,2.77 -9.55,4.32 -15.3,4.32 -8.36,0 -15.56,-3.13 -20.67,-8.44 -5.1,-5.3 -8.12,-12.76 -8.12,-21.43 0,-8.67 3.02,-16.13 8.12,-21.43 5.11,-5.31 12.31,-8.44 20.67,-8.44 8.97,0 15.98,3.33 20.85,8.8 5.22,5.87 7.94,14.2 7.94,23.51l0 24.67c0,8.03 -2.91,14.95 -7.83,19.87 -4.92,4.92 -11.85,7.83 -19.87,7.83 -7.49,0 -14.22,-2.26 -19.29,-6.08zm0.79 -30.54c4.35,4.54 10.45,7.23 17.42,7.23 7.08,0 13.16,-2.66 17.46,-7.15 4.32,-4.51 6.87,-10.88 6.87,-18.26 0,-7.36 -2.58,-13.7 -6.9,-18.21 -4.33,-4.52 -10.43,-7.2 -17.43,-7.2 -7.16,0 -13.22,2.64 -17.49,7.1 -4.32,4.51 -6.84,10.9 -6.84,18.31 0,7.34 2.6,13.68 6.92,18.18zm-27.15 -44.89c2.67,-2.05 5.98,-3.17 9.85,-3.17 1.5,0 3,0.17 4.46,0.48 1.45,0.32 2.87,0.79 4.2,1.39 0.23,0.08 0.4,0.31 0.4,0.57l0 3.69c-0,0.1 -0.03,0.2 -0.08,0.29 -0.16,0.29 -0.53,0.39 -0.82,0.23 -1.32,-0.74 -2.63,-1.29 -3.96,-1.65 -1.33,-0.36 -2.68,-0.55 -4.1,-0.55 -4.49,0 -8.19,2.06 -10.77,5.67 -2.64,3.7 -4.13,9.01 -4.13,15.41l0 31.44c0,0.33 -0.27,0.6 -0.6,0.6l-3.25 0c-0.33,0 -0.6,-0.27 -0.6,-0.6l0 -54.2c0,-0.33 0.27,-0.6 0.6,-0.6l3.25 0c0.33,0 0.6,0.27 0.6,0.6l0 6.6c1.25,-2.55 2.91,-4.64 4.94,-6.2zm-62.9 45.3c4.48,4.29 10.72,6.82 17.97,6.82 5.1,0 10.06,-1.6 14.13,-4.31l0 0c4.03,-2.69 7.18,-6.46 8.7,-10.86 0.08,-0.29 0.37,-0.48 0.68,-0.43l3.23 0.54c0.04,0 0.07,0.01 0.11,0.02 0.32,0.1 0.49,0.44 0.39,0.76 -1.77,5.43 -5.54,10.12 -10.38,13.44 -4.84,3.33 -10.77,5.3 -16.87,5.3 -8.68,0 -16.14,-3.13 -21.44,-8.43 -5.3,-5.3 -8.43,-12.77 -8.43,-21.44 0,-8.68 3.13,-16.14 8.43,-21.44 5.3,-5.3 12.77,-8.43 21.44,-8.43 8.4,0 15.59,3.12 20.69,8.42 5.11,5.3 8.1,12.77 8.1,21.46l0 1.08c0,0.33 -0.27,0.6 -0.6,0.6l-53.58 0c0.35,6.85 3.05,12.72 7.42,16.91zm0.36 -37.52c-4.34,3.98 -7.15,9.58 -7.75,16.15l49.54 0c-0.6,-6.58 -3.28,-12.19 -7.42,-16.18 -4.25,-4.08 -10.05,-6.47 -16.75,-6.47 -7.04,0 -13.14,2.4 -17.61,6.49zm-118.88 0c-4.34,3.98 -7.15,9.58 -7.75,16.15l49.54 0c-0.6,-6.58 -3.28,-12.19 -7.42,-16.18 -4.25,-4.08 -10.05,-6.47 -16.75,-6.47 -7.04,0 -13.14,2.4 -17.61,6.49z"/>
  </g>
 </g>
</svg>
